<?xml version="1.0" standalone="no"?>
<!DOCTYPE svg PUBLIC "-//W3C//DTD SVG 20010904//EN"
 "http://www.w3.org/TR/2001/REC-SVG-20010904/DTD/svg10.dtd">
<svg version="1.0" xmlns="http://www.w3.org/2000/svg"
 width="512.000000pt" height="512.000000pt" viewBox="0 0 512.000000 512.000000"
 preserveAspectRatio="xMidYMid meet">
<metadata>
Created by potrace 1.11, written by Peter Selinger 2001-2013
</metadata>
<g transform="translate(0.000000,512.000000) scale(0.100000,-0.100000)"
fill="#000000" stroke="none">
<path d="M772 4575 c-29 -7 -75 -27 -101 -46 -57 -38 -119 -126 -127 -180 -4
-23 -11 -36 -17 -32 -6 3 -7 1 -3 -6 4 -7 7 -366 6 -799 0 -433 -1 -794 -1
-802 0 -8 0 -404 0 -880 0 -476 0 -869 0 -875 1 -87 6 -148 17 -188 7 -28 10
-55 7 -60 -3 -6 -1 -7 5 -3 6 3 13 -2 16 -12 4 -11 23 -36 44 -56 20 -21 37
-43 37 -49 1 -7 6 -11 12 -10 6 2 33 -7 60 -19 55 -25 67 -26 218 -27 209 -1
206 0 198 -14 -3 -7 4 -3 17 8 l23 20 -5 -22 c-4 -13 -2 -26 3 -29 5 -3 9 -2
8 3 -5 31 3 33 122 33 93 0 119 -3 113 -12 -6 -10 -4 -10 7 -2 12 10 74 17
129 15 8 -1 27 -1 43 -2 18 0 25 -4 20 -12 -3 -7 4 -3 17 8 l23 20 -5 -22 c-4
-13 -2 -26 3 -29 5 -3 9 -2 8 3 -5 29 3 34 59 32 31 -1 62 0 67 1 6 1 34 2 63
1 40 -1 51 -4 46 -14 -6 -9 -5 -9 7 0 22 18 683 18 673 0 -4 -6 3 -3 16 8 l23
20 -5 -22 c-4 -13 -2 -26 3 -29 5 -3 9 -2 8 3 -5 29 3 34 59 32 31 -1 62 0 67
1 6 1 34 2 63 1 40 -1 51 -4 46 -14 -6 -9 -4 -9 7 -1 12 10 74 17 129 15 8 -1
27 -1 43 -2 18 0 25 -4 20 -12 -3 -7 4 -3 17 8 l23 20 -5 -22 c-4 -13 -2 -26
3 -29 5 -3 9 -2 8 3 -5 31 3 33 122 33 93 0 119 -3 113 -13 -6 -9 -4 -9 7 -1
12 10 74 17 129 15 8 -1 27 -1 43 -2 18 0 25 -4 20 -12 -3 -7 4 -3 17 8 l23
20 -5 -22 c-4 -13 -2 -26 3 -29 5 -3 9 -2 8 3 -5 29 3 34 59 32 31 -1 62 0 67
1 6 1 34 2 63 1 40 -1 51 -4 46 -13 -6 -10 -5 -10 7 -1 11 9 78 13 235 13 120
1 233 2 251 4 66 5 198 91 217 141 3 9 10 13 16 10 6 -3 7 1 4 9 -3 9 -1 16 6
16 6 0 8 5 5 10 -4 6 -1 17 5 25 7 8 9 15 5 15 -4 0 -2 7 5 15 7 8 9 15 5 15
-4 0 -1 8 6 17 8 9 10 14 4 11 -9 -5 -10 155 -5 581 0 57 1 423 1 451 -1 8 0
62 0 120 0 58 0 112 0 120 0 8 0 152 0 320 0 168 0 312 0 320 0 8 0 98 0 200
0 102 0 192 0 200 -1 8 0 62 0 120 0 58 0 112 0 120 0 8 0 152 0 320 0 168 0
310 0 315 0 6 -1 82 -2 169 -2 114 -6 167 -16 188 -8 15 -11 33 -7 39 4 7 3 9
-2 6 -6 -3 -15 7 -22 23 -27 60 -111 124 -192 145 -73 19 -3496 19 -3578 0z"/>
<path d="M615 611 c-3 -5 -2 -12 3 -15 5 -3 9 1 9 9 0 17 -3 19 -12 6z"/>
<path d="M4415 539 c-3 -4 2 -6 10 -5 21 3 28 13 10 13 -9 0 -18 -4 -20 -8z"/>
<path d="M4393 515 c0 -8 4 -12 9 -9 5 3 6 10 3 15 -9 13 -12 11 -12 -6z"/>
<path d="M4520 520 c-9 -6 -10 -10 -3 -10 6 0 15 5 18 10 8 12 4 12 -15 0z"/>
<path d="M4213 505 c0 -8 4 -12 9 -9 5 3 6 10 3 15 -9 13 -12 11 -12 -6z"/>
<path d="M975 500 c3 -5 8 -10 11 -10 2 0 4 5 4 10 0 6 -5 10 -11 10 -5 0 -7
-4 -4 -10z"/>
<path d="M1010 499 c0 -5 5 -7 10 -4 6 3 10 8 10 11 0 2 -4 4 -10 4 -5 0 -10
-5 -10 -11z"/>
<path d="M1250 499 c0 -5 5 -7 10 -4 6 3 10 8 10 11 0 2 -4 4 -10 4 -5 0 -10
-5 -10 -11z"/>
<path d="M1455 500 c3 -5 8 -10 11 -10 2 0 4 5 4 10 0 6 -5 10 -11 10 -5 0 -7
-4 -4 -10z"/>
<path d="M1490 499 c0 -5 5 -7 10 -4 6 3 10 8 10 11 0 2 -4 4 -10 4 -5 0 -10
-5 -10 -11z"/>
<path d="M1730 499 c0 -5 5 -7 10 -4 6 3 10 8 10 11 0 2 -4 4 -10 4 -5 0 -10
-5 -10 -11z"/>
<path d="M1970 499 c0 -5 5 -7 10 -4 6 3 10 8 10 11 0 2 -4 4 -10 4 -5 0 -10
-5 -10 -11z"/>
<path d="M2130 499 c0 -5 5 -7 10 -4 6 3 10 8 10 11 0 2 -4 4 -10 4 -5 0 -10
-5 -10 -11z"/>
<path d="M2290 499 c0 -5 5 -7 10 -4 6 3 10 8 10 11 0 2 -4 4 -10 4 -5 0 -10
-5 -10 -11z"/>
<path d="M2450 499 c0 -5 5 -7 10 -4 6 3 10 8 10 11 0 2 -4 4 -10 4 -5 0 -10
-5 -10 -11z"/>
<path d="M2690 499 c0 -5 5 -7 10 -4 6 3 10 8 10 11 0 2 -4 4 -10 4 -5 0 -10
-5 -10 -11z"/>
<path d="M2895 500 c3 -5 8 -10 11 -10 2 0 4 5 4 10 0 6 -5 10 -11 10 -5 0 -7
-4 -4 -10z"/>
<path d="M2930 499 c0 -5 5 -7 10 -4 6 3 10 8 10 11 0 2 -4 4 -10 4 -5 0 -10
-5 -10 -11z"/>
<path d="M3170 499 c0 -5 5 -7 10 -4 6 3 10 8 10 11 0 2 -4 4 -10 4 -5 0 -10
-5 -10 -11z"/>
<path d="M3375 500 c3 -5 8 -10 11 -10 2 0 4 5 4 10 0 6 -5 10 -11 10 -5 0 -7
-4 -4 -10z"/>
<path d="M3410 499 c0 -5 5 -7 10 -4 6 3 10 8 10 11 0 2 -4 4 -10 4 -5 0 -10
-5 -10 -11z"/>
<path d="M3650 499 c0 -5 5 -7 10 -4 6 3 10 8 10 11 0 2 -4 4 -10 4 -5 0 -10
-5 -10 -11z"/>
<path d="M3890 499 c0 -5 5 -7 10 -4 6 3 10 8 10 11 0 2 -4 4 -10 4 -5 0 -10
-5 -10 -11z"/>
<path d="M4050 499 c0 -5 5 -7 10 -4 6 3 10 8 10 11 0 2 -4 4 -10 4 -5 0 -10
-5 -10 -11z"/>
<path d="M4106 482 c-3 -5 1 -9 9 -9 8 0 12 4 9 9 -3 4 -7 8 -9 8 -2 0 -6 -4
-9 -8z"/>
<path d="M1910 406 c0 -2 7 -7 16 -10 8 -3 12 -2 9 4 -6 10 -25 14 -25 6z"/>
<path d="M3830 406 c0 -2 7 -7 16 -10 8 -3 12 -2 9 4 -6 10 -25 14 -25 6z"/>
</g>
</svg>
