<?xml version="1.0" standalone="no"?>
<!DOCTYPE svg PUBLIC "-//W3C//DTD SVG 20010904//EN"
 "http://www.w3.org/TR/2001/REC-SVG-20010904/DTD/svg10.dtd">
<svg version="1.0" xmlns="http://www.w3.org/2000/svg"
 width="325.000000pt" height="325.000000pt" viewBox="0 0 325.000000 325.000000"
 preserveAspectRatio="xMidYMid meet">
<metadata>
Created by potrace 1.15, written by Peter Selinger 2001-2017
</metadata>
<g transform="translate(0.000000,325.000000) scale(0.100000,-0.100000)"
fill="#000000" stroke="none">
<path d="M511 2959 c-148 -25 -235 -109 -261 -251 -7 -36 -10 -446 -8 -1164
l3 -1109 26 -55 c36 -77 71 -115 137 -147 l57 -28 1160 0 1160 0 57 28 c66 32
101 70 137 147 l26 55 3 1100 c2 780 0 1119 -8 1165 -21 125 -91 209 -203 247
-48 17 -129 18 -1142 19 -616 1 -1113 -2 -1144 -7z m2310 -84 c23 -16 52 -48
63 -70 21 -40 21 -43 21 -1181 l0 -1141 -30 -48 c-19 -30 -45 -56 -70 -69 -40
-21 -46 -21 -1160 -24 -855 -2 -1130 0 -1164 9 -57 16 -114 74 -130 131 -9 32
-11 332 -9 1170 l3 1126 30 43 c17 23 50 53 74 66 l45 23 1142 -2 1142 -3 43
-30z"/>
<path d="M1010 1621 l0 -811 278 0 c300 0 378 8 484 44 102 36 174 82 258 166
105 105 170 236 199 404 16 86 13 321 -3 408 -54 283 -226 482 -491 569 -66
21 -89 23 -397 27 l-328 4 0 -811z m563 499 c163 -24 263 -129 298 -314 15
-78 11 -322 -6 -395 -22 -93 -70 -177 -128 -222 -66 -53 -138 -72 -267 -73
l-105 -1 -3 475 c-1 261 0 490 3 508 l6 32 67 0 c37 0 98 -5 135 -10z"/>
</g>
</svg>
